Coordinates
version=1
nRows=29
nColumns=22
inDegrees=yes

Units are S.I. units (second, meters, Newtons, ...)
If the header above contains a line with 'inDegrees', this indicates whether rotational values are in degrees (yes) or radians (no).

endheader
time	pelvis_tilt	pelvis_list	pelvis_rotation	pelvis_tx	pelvis_ty	pelvis_tz	hip_flexion_r	hip_adduction_r	hip_rotation_r	knee_angle_r	ankle_angle_r	subtalar_angle_r	hip_flexion_l	hip_adduction_l	hip_rotation_l	knee_angle_l	ankle_angle_l	subtalar_angle_l	lumbar_extension	lumbar_bending	lumbar_rotation
      3.82000000	      2.96786509	      9.04872485	    184.03597491	      0.27677636	      0.96011960	     -0.63979597	      1.26896687	      6.86354620	    -10.86235020	    -14.22609015	     13.50794316	      5.61313738	     31.93207275	     -6.27850052	     -0.60316049	    -40.53239754	      8.11451846	     -4.16466392	     -0.70239045	      7.53754825	      1.37743678
      3.83000000	      2.94113633	      9.06627916	    184.29655928	      0.26995969	      0.95911267	     -0.63935553	      0.70418038	      6.92430061	    -11.07302641	    -14.06609988	     13.79418624	      5.61395956	     32.27664962	     -6.36644658	     -1.48241316	    -38.66435458	      7.71148593	     -4.33055322	     -0.69557483	      7.53854681	      1.54113725
      3.84000000	      2.88339269	      9.09488984	    184.54642873	      0.26308989	      0.95805417	     -0.63878820	      0.12576768	      6.99063166	    -11.26898357	    -13.94449139	     14.09744273	      5.67183859	     32.53720116	     -6.44144721	     -2.30778551	    -36.75678681	      7.31487417	     -4.51415247	     -0.72195212	      7.55236115	      1.68688949
      3.85000000	      2.85464482	      9.09848914	    184.77869363	      0.25617269	      0.95688280	     -0.63808032	     -0.39021748	      7.01276594	    -11.47639225	    -13.89170875	     14.41138319	      5.68810609	     32.76562266	     -6.45837414	     -3.06799141	    -34.80747674	      6.97339155	     -4.50788396	     -0.71401679	      7.53345563	      1.82322270
      3.86000000	      2.78437997	      9.11760991	    184.99920551	      0.24916582	      0.95569534	     -0.63726121	     -0.94528472	      7.04919033	    -11.65699403	    -13.85558974	     14.72666110	      5.74345509	     32.90851588	     -6.48143208	     -3.76903837	    -32.85647043	      6.67418529	     -4.49341705	     -0.74724320	      7.53115524	      1.95384714
      3.87000000	      2.68833676	      9.15902868	    185.20717842	      0.24210049	      0.95447612	     -0.63634166	     -1.50989673	      7.10280277	    -11.80661804	    -13.85709760	     15.03907501	      5.85728939	     32.99439979	     -6.52029847	     -4.38712842	    -30.92917922	      6.44276159	     -4.47275192	     -0.80652853	      7.55017747	      2.07203554
      3.88000000	      2.61095146	      9.20180281	    185.41085314	      0.23496131	      0.95318324	     -0.63531848	     -2.03911915	      7.14682827	    -11.97330163	    -13.89603246	     15.33730860	      5.93233875	     33.08423860	     -6.55962498	     -4.94854834	    -29.06444795	      6.26289593	     -4.42421148	     -0.83781226	      7.55933520	      2.17307359
      3.89000000	      2.50879343	      9.27503965	    185.59891658	      0.22776804	      0.95188584	     -0.63423010	     -2.57330319	      7.21859253	    -12.09425287	    -13.97658654	     15.61614775	      6.05330188	     33.14375497	     -6.65156824	     -5.45937805	    -27.28653864	      6.16294799	     -4.39790010	     -0.89556522	      7.59677147	      2.26446475
      3.90000000	      2.42555912	      9.35826134	    185.77832517	      0.22051758	      0.95053768	     -0.63307657	     -3.06972507	      7.29280255	    -12.19000740	    -14.09425903	     15.86761336	      6.14910554	     33.22910416	     -6.77966588	     -5.96321536	    -25.62299346	      6.10172145	     -4.39552657	     -0.92769568	      7.62910333	      2.33175326
      3.91000000	      2.32057626	      9.47768259	    185.93564177	      0.21318085	      0.94918165	     -0.63189933	     -3.56607251	      7.39863065	    -12.25006897	    -14.25688838	     16.10249874	      6.28449903	     33.31446389	     -6.99924333	     -6.52332090	    -24.11553654	      6.15520270	     -4.46908223	     -0.98081314	      7.68951193	      2.41408011
      3.92000000	      2.21892484	      9.62633339	    186.08551338	      0.20575863	      0.94779930	     -0.63067978	     -4.03665125	      7.52725947	    -12.28406263	    -14.46152833	     16.30063031	      6.48271017	     33.42925653	     -7.29364553	     -7.15966180	    -22.77400555	      6.26941007	     -4.66768984	     -1.02358785	      7.76731300	      2.47033601
      3.93000000	      2.11585473	      9.80137668	    186.21626933	      0.19822191	      0.94639832	     -0.62942730	     -4.48519922	      7.67264095	    -12.30333507	    -14.71412689	     16.48080827	      6.69235207	     33.57370931	     -7.67208241	     -7.92238378	    -21.62824978	      6.47036648	     -5.00436959	     -1.05986871	      7.85709104	      2.54753724
      3.94000000	      2.02675873	     10.01484712	    186.30851964	      0.19058592	      0.94498383	     -0.62818313	     -4.90380940	      7.85551679	    -12.21524675	    -14.99573509	     16.61438377	      6.83422885	     33.77347024	     -8.15758320	     -8.84467191	    -20.70481169	      6.75418550	     -5.33902715	     -1.07746697	      7.97171092	      2.61979164
      3.95000000	      1.90578089	     10.20560012	    186.39983057	      0.18277053	      0.94364241	     -0.62683340	     -5.35314885	      7.99932610	    -12.17044431	    -15.30486848	     16.71481114	      7.11652549	     33.94326228	     -8.66863383	     -9.91655258	    -19.96963575	      7.03784393	     -5.98838876	     -1.12053362	      8.04997460	      2.69766448
      3.96000000	      1.80227915	     10.41954970	    186.45112161	      0.17481735	      0.94232544	     -0.62544372	     -5.77694207	      8.15833278	    -12.02868710	    -15.63661504	     16.76761591	      7.36922609	     34.14453861	     -9.25496954	    -11.09575741	    -19.44221438	      7.36981402	     -6.57158295	     -1.13814355	      8.13898788	      2.78828441
      3.97000000	      1.68482008	     10.61095279	    186.48855189	      0.16669872	      0.94108327	     -0.62393145	     -6.21287939	      8.27700539	    -11.87647161	    -15.99514118	     16.79357377	      7.71438562	     34.31184299	     -9.84916979	    -12.34560769	    -19.08592259	      7.72666877	     -7.26841347	     -1.16945629	      8.19141042	      2.87316648
      3.98000000	      1.57796455	     10.79227665	    186.48514961	      0.15837497	      0.93991950	     -0.62231201	     -6.65695088	      8.37212589	    -11.64134177	    -16.34367811	     16.75334000	      8.06168466	     34.46155304	    -10.46776639	    -13.66175199	    -18.90088675	      8.05332251	     -7.84590264	     -1.17885095	      8.22448069	      2.98001782
      3.99000000	      1.46161530	     10.93494409	    186.47145446	      0.14986174	      0.93883668	     -0.62050982	     -7.11253283	      8.40397254	    -11.40672218	    -16.71878179	     16.68479094	      8.52984632	     34.55121342	    -11.04997535	    -14.95653788	    -18.85793394	      8.39657046	     -8.44718023	     -1.19384074	      8.20745901	      3.07259639
      4.00000000	      1.36161847	     11.05686526	    186.43498655	      0.14115579	      0.93781557	     -0.61853052	     -7.56143673	      8.39433596	    -11.12949157	    -17.09933358	     16.56735398	      9.02865035	     34.60691591	    -11.60745849	    -16.19982071	    -18.95722455	      8.71171053	     -8.91395878	     -1.18168888	      8.16126911	      3.16182177
      4.01000000	      1.27897014	     11.14714282	    186.38761018	      0.13225727	      0.93685059	     -0.61634721	     -8.00264210	      8.33011082	    -10.83494477	    -17.48723622	     16.40391129	      9.57609323	     34.62286519	    -12.11464422	    -17.35153729	    -19.18958238	      8.96749566	     -9.28095841	     -1.14088923	      8.07408628	      3.24109464
      4.02000000	      1.21685628	     11.20474561	    186.33930822	      0.12318035	      0.93593266	     -0.61393238	     -8.41925111	      8.20880876	    -10.54038650	    -17.90216381	     16.18962249	     10.17669759	     34.60104267	    -12.55855522	    -18.38246799	    -19.54848488	      9.14853096	     -9.56867960	     -1.06817984	      7.94626571	      3.29583775
      4.03000000	      1.18139982	     11.23543932	    186.30086585	      0.11394217	      0.93504583	     -0.61129098	     -8.79534636	      8.03941796	    -10.24909720	    -18.35560783	     15.92721058	     10.82747777	     34.55714894	    -12.93780999	    -19.27964017	    -20.03294143	      9.22539353	     -9.79931150	     -0.95615449	      7.78215956	      3.31217712
      4.04000000	      1.17377659	     11.23121475	    186.28183578	      0.10454758	      0.93420013	     -0.60839952	     -9.12106479	      7.81468743	     -9.97596574	    -18.86025463	     15.60389179	     11.50956692	     34.49257109	    -13.24185505	    -20.06594065	    -20.63116158	      9.15326953	     -9.99313421	     -0.80420989	      7.57486043	      3.28857080
      4.05000000	      1.20150342	     11.19917747	    186.29488171	      0.09501644	      0.93339435	     -0.60526019	     -9.37717342	      7.54627859	     -9.72573503	    -19.42725627	     15.21093364	     12.23522354	     34.42852242	    -13.47590280	    -20.76438616	    -21.33345814	      8.90930690	    -10.16713983	     -0.60424716	      7.33000809	      3.21116890
      4.06000000	      1.26389019	     11.13331349	    186.35096493	      0.08538002	      0.93265596	     -0.60186215	     -9.54852461	      7.23110231	     -9.50379129	    -20.07832634	     14.73236694	     12.97632160	     34.36746368	    -13.63169532	    -21.39786269	    -22.10996835	      8.46265873	    -10.32028896	     -0.35951719	      7.04185759	      3.07501253
      4.07000000	      1.36194563	     11.03223346	    186.46496382	      0.07567273	      0.93200711	     -0.59819466	     -9.61989287	      6.87173288	     -9.31747237	    -20.82966460	     14.16120546	     13.73439184	     34.32130694	    -13.70219461	    -21.96701972	    -22.93395540	      7.81765210	    -10.45196043	     -0.07060868	      6.70780377	      2.87298118
      4.08000000	      1.50980801	     10.88624607	    186.64326443	      0.06594437	      0.93144478	     -0.59425146	     -9.55000213	      6.45639568	     -9.18923755	    -21.72156304	     13.50037972	     14.38338727	     34.31457060	    -13.67231379	    -22.46948028	    -23.78218615	      7.02507014	    -10.53223417	      0.27272397	      6.31494800	      2.60894465
      4.09000000	      1.65481423	     10.72114640	    186.92676070	      0.05623365	      0.93108065	     -0.58997572	     -9.39629650	      6.02609619	     -9.08921725	    -22.72934195	     12.67775421	     15.24118336	     34.29497211	    -13.53050208	    -22.79408256	    -24.59128830	      6.14199621	    -10.61109818	      0.61152798	      5.90079551	      2.24976982
      4.10000000	      1.82920277	     10.51381988	    187.30255996	      0.04657739	      0.93085451	     -0.58539375	     -9.09430710	      5.54639155	     -9.06385801	    -23.91052808	     11.73804172	     15.96314591	     34.30445739	    -13.25973415	    -22.97330292	    -25.37171494	      5.27907383	    -10.62755215	      0.97427516	      5.43332739	      1.82298972
